<?xml version="1.0" encoding="UTF-8" standalone="no" ?>
<!DOCTYPE svg PUBLIC "-//W3C//DTD SVG 1.1//EN" "http://www.w3.org/Graphics/SVG/1.1/DTD/svg11.dtd">
<svg xmlns="http://www.w3.org/2000/svg" xmlns:xlink="http://www.w3.org/1999/xlink" version="1.1" width="48" height="48" viewBox="0 0 48 48" xml:space="preserve">
<desc>Created with Fabric.js 5.3.0</desc>
<defs>
</defs>
<g transform="matrix(0.07205799319601087 0 0 0.07205799319601087 24.499729203264348 24.4997176866437)" id="background-e7d94e91-10ce-4199-a4d9-36fa93f9b1a9"  >
<rect style="stroke: none; stroke-width: 0; stroke-dasharray: none; stroke-linecap: butt; stroke-dashoffset: 0; stroke-linejoin: miter; stroke-miterlimit: 4; fill: rgb(255,255,251); fill-rule: nonzero; opacity: 1;"  paint-order="stroke"  x="-340" y="-340" rx="0" ry="0" width="680" height="680" />
</g>
<g transform="matrix(0.07538374672813446 0 0 0.07538374672813446 24.499164576551745 24.4997176866437)" id="maker-logo"  >
<g style=""  paint-order="stroke"   >
		<g transform="matrix(1 0 0 1 0 -59.28020223553813)" id="logo-logo"  >
<g style=""  paint-order="stroke"   >
		<g transform="matrix(1.0036329590066089 0 0 1.0036329590066089 0 -2.842171e-14)"  >
<linearGradient id="SVGID_3921" gradientUnits="userSpaceOnUse" gradientTransform="matrix(1 0 0 1 0 -0.010000000000005116)"  x1="0" y1="0" x2="0" y2="183">
<stop offset="0%" style="stop-color:rgb(245,81,95);stop-opacity: 1"/>
<stop offset="100%" style="stop-color:rgb(159,4,27);stop-opacity: 1"/>
</linearGradient>
<path style="stroke: none; stroke-width: 1; stroke-dasharray: none; stroke-linecap: butt; stroke-dashoffset: 0; stroke-linejoin: miter; stroke-miterlimit: 4; fill: url(#SVGID_3921); fill-rule: nonzero; opacity: 1;"  paint-order="stroke"  transform=" translate(-83.65999999999997, -91.61)" d="M 85 98.84 L 50.56 90.94 L 50.56 81.17 L 101.69 99.24000000000001 L 84.99 98.85000000000001 Z M 81.52 27.17 C 87.83 27.17 92.94999999999999 29.130000000000003 92.94999999999999 31.55 C 92.94999999999999 31.71 92.92999999999999 31.86 92.88999999999999 32.01 C 90.65999999999998 30.95 87.42999999999999 30.279999999999998 83.82999999999998 30.279999999999998 C 79.27999999999999 30.279999999999998 75.30999999999999 31.349999999999998 73.20999999999998 32.93 C 75.22999999999998 32.38 77.71999999999998 32.05 80.40999999999998 32.05 C 87.17999999999998 32.05 92.67999999999998 34.12 92.67999999999998 36.669999999999995 C 92.67999999999998 38.309999999999995 90.40999999999998 39.74999999999999 86.98999999999998 40.56999999999999 C 92.19999999999997 39.96999999999999 96.02999999999997 37.93999999999999 96.02999999999997 35.519999999999996 C 96.02999999999997 34.8 95.68999999999997 34.11 95.07999999999997 33.489999999999995 C 95.99999999999997 32.739999999999995 96.52999999999997 31.879999999999995 96.52999999999997 30.969999999999995 C 96.52999999999997 29.309999999999995 94.80999999999997 27.829999999999995 92.08999999999997 26.829999999999995 C 92.27999999999997 26.519999999999996 92.39999999999998 26.199999999999996 92.39999999999998 25.869999999999994 C 92.39999999999998 24.209999999999994 89.82999999999998 22.809999999999995 86.30999999999997 22.349999999999994 L 86.30999999999997 22.349999999999994 C 86.30999999999997 22.349999999999994 85.69999999999997 20.339999999999996 85.69999999999997 20.339999999999996 L 84.87999999999998 18.959999999999997 L 84.40999999999998 7.659999999999997 C 85.50999999999998 7.659999999999997 85.50999999999998 5.929999999999996 84.40999999999998 5.929999999999996 L 83.82999999999998 -0.010000000000004228 L 83.24999999999999 5.929999999999996 C 82.14999999999999 5.929999999999996 82.14999999999999 7.659999999999997 83.24999999999999 7.659999999999997 L 82.77999999999999 18.959999999999997 L 81.96 20.339999999999996 L 81.35 22.349999999999994 L 81.35 22.349999999999994 C 78.5 22.719999999999995 76.28999999999999 23.699999999999996 75.53999999999999 24.939999999999994 C 76.94 24.229999999999993 79.30999999999999 23.759999999999994 81.99999999999999 23.759999999999994 C 86.01999999999998 23.759999999999994 89.32 24.799999999999994 89.73999999999998 26.139999999999993 C 87.96999999999998 25.739999999999995 85.95999999999998 25.509999999999994 83.81999999999998 25.509999999999994 C 80.17999999999998 25.509999999999994 76.88999999999999 26.169999999999995 74.57999999999998 27.219999999999995 C 73.32999999999998 27.789999999999996 72.35999999999999 28.479999999999997 71.76999999999998 29.239999999999995 C 73.77999999999999 27.989999999999995 77.38999999999999 27.149999999999995 81.50999999999998 27.149999999999995 Z M 142.42 156.11 L 87.29999999999998 153.22000000000003 L 90.91999999999999 183.23000000000002 L 76.40999999999998 183.23000000000002 L 80.02999999999999 153.22000000000003 L 24.90999999999999 156.11 L 39.15999999999999 140.06 L 0 117.57 L 15.92 112.46 L 2.8499999999999996 91.61999999999999 L 25.39 98.60999999999999 L 23.34 83.07 L 50.56 98.83 L 50.56 103.77 L 101.69 105.21 L 101.69 102.66 L 84.99 98.83 L 100.57 98.83 C 100.57 98.83 101.69 99.22 101.69 99.22 L 101.69 98.83 L 112.59 98.83 L 112.59 93.86 L 103.79 98.83 L 103.79 98.83 C 103.79 98.83 101.69000000000001 99.23 101.69000000000001 99.23 L 101.69000000000001 96.68 L 50.56000000000001 68.64000000000001 L 50.56000000000001 56.05000000000001 L 57.78000000000001 60.84000000000001 L 68.35000000000001 53.53000000000001 L 68.37 53.57000000000001 L 68.37 53.50000000000001 L 76.66 60.650000000000006 L 80.64999999999999 41.290000000000006 L 81.36999999999999 37.800000000000004 L 81.21999999999998 41.28 L 79.78999999999998 75.43 L 82.60999999999997 77.30000000000001 L 83.24999999999997 41.16000000000001 L 83.30999999999997 37.63000000000001 L 83.42999999999998 41.15000000000001 L 84.70999999999998 78.70000000000002 L 87.35999999999999 80.46000000000002 L 85.40999999999998 40.89000000000002 L 85.25999999999998 37.800000000000026 L 85.80999999999997 40.82000000000003 L 91.62999999999997 72.72000000000003 L 116.88999999999997 58.47000000000003 L 116.88999999999997 98.76000000000002 L 143.97999999999996 83.07000000000002 L 141.92999999999995 98.61000000000001 L 164.46999999999994 91.62000000000002 L 151.39999999999995 112.46000000000002 L 167.31999999999994 117.57000000000002 L 128.15999999999994 140.06000000000003 L 142.40999999999994 156.11000000000004 Z M 76.11 63.29 L 70.71 58.629999999999995 L 70.71 69.42999999999999 L 74.35 71.83999999999999 L 76.11 63.28999999999999 Z M 101.7 113.6 L 50.57 137.56 L 50.57 150.4 L 101.7 116.15 L 101.7 113.60000000000001 Z M 101.7 108.07 L 50.57 114.47999999999999 L 50.57 127.32 L 101.7 110.61999999999999 L 101.7 108.07 Z M 112.6 84.44 L 102.19 90.31 L 103.8 91.38 L 103.8 93.91 L 112.6 88.94 L 112.6 84.44 Z M 112.6 75 L 94.5 85.21000000000001 L 98.17 87.64000000000001 L 112.6 79.50000000000001 L 112.6 75.00000000000001 Z M 112.6 65.84 L 92.44999999999999 77.21000000000001 L 93.14999999999999 81.04 L 112.6 70.07000000000001 L 112.6 65.84 Z" stroke-linecap="round" />
</g>
</g>
</g>
		<g transform="matrix(1 0 0 1 -0.042749999999983856 86.00224740652476)" id="text-logo"  >
<g style=""  paint-order="stroke"   >
		<g transform="matrix(1 0 0 1 0 0)" id="text-logo-path-0"  >
<path style="stroke: none; stroke-width: 0; stroke-dasharray: none; stroke-linecap: butt; stroke-dashoffset: 0; stroke-linejoin: miter; stroke-miterlimit: 4; fill: rgb(0,0,0); fill-rule: nonzero; opacity: 1;"  paint-order="stroke"  transform=" translate(-191.52, 17.53602308316752)" d="M 30.55 -35.34 L 28.1 -35.34 L 19.38 -18.41 L 11.51 -33.06 C 10.6 -34.66 10.03 -35.34 7.47 -35.34 L 3.08 -35.34 L 3.08 0 L 10.32 0 L 10.32 -22.12 L 16.3 -10.09 L 21.2 -10.09 L 27.64 -22.69 L 27.64 0 L 35.57 0 L 35.57 -30.61 C 35.57 -33.97 34.14 -35.34 30.55 -35.34 Z M 81.74 0 L 74.27 -35.34 L 66.23 -35.63 C 61.1 -35.8 59.62 -34.2 58.37 -28.96 L 51.13 0 L 58.82 0 L 60.59 -7.87 L 71.99 -7.87 L 73.53 0 Z M 65.09 -27.47 C 65.21 -28.04 65.32 -28.27 65.89 -28.27 L 68 -28.27 L 70.62 -14.93 L 62.19 -14.93 Z M 106.25 0 L 106.25 -11.63 L 112.86 -11.63 C 119.53 -11.63 123.18 -15.79 123.18 -21.09 L 123.18 -26.45 C 123.18 -32.32 119.53 -35.74 112.86 -35.63 L 97.98 -35.34 L 97.98 0 Z M 114.06 -28.44 C 114.57 -28.44 114.8 -28.21 114.8 -27.64 L 114.8 -19.61 C 114.8 -19.04 114.57 -18.81 114.06 -18.81 L 106.25 -18.81 L 106.25 -28.44 Z M 160 -7.18 L 147.97 -7.18 L 147.97 -35.34 L 139.71 -35.34 L 139.71 0 L 160 0 Z M 196.48 0 L 196.48 -7.18 L 183.08 -7.18 L 183.08 -14.36 L 195.11 -14.36 L 195.11 -21.43 L 183.08 -21.43 L 183.08 -28.16 L 196.19 -28.16 L 196.19 -35.34 L 174.82 -35.34 L 174.82 0 Z M 234.78 0 L 240.6 0 L 240.6 -35.34 L 233.53 -35.34 L 233.53 -14.14 L 219.11 -35.34 L 213.35 -35.34 L 213.35 0 L 220.42 0 L 220.42 -21.2 Z M 286.77 0 L 279.3 -35.34 L 271.26 -35.63 C 266.13 -35.8 264.65 -34.2 263.4 -28.96 L 256.16 0 L 263.85 0 L 265.62 -7.87 L 277.02 -7.87 L 278.56 0 Z M 270.12 -27.47 C 270.24 -28.04 270.35 -28.27 270.92 -28.27 L 273.03 -28.27 L 275.65 -14.93 L 267.22 -14.93 Z M 329.69 -35.34 L 327.24 -35.34 L 318.52 -18.41 L 310.65 -33.06 C 309.74 -34.66 309.17 -35.34 306.6 -35.34 L 302.21 -35.34 L 302.21 0 L 309.45 0 L 309.45 -22.12 L 315.44 -10.09 L 320.34 -10.09 L 326.78 -22.69 L 326.78 0 L 334.7 0 L 334.7 -30.61 C 334.7 -33.97 333.28 -35.34 329.69 -35.34 Z M 369.99 0.57 C 376.66 0.57 379.96 -2.45 379.96 -8.32 L 379.96 -35.34 L 371.64 -35.34 L 371.64 -7.64 C 371.64 -7.07 371.35 -6.84 370.84 -6.84 L 362.06 -6.84 C 361.55 -6.84 361.27 -7.07 361.27 -7.64 L 361.27 -35.34 L 352.94 -35.34 L 352.94 -8.32 C 352.94 -2.45 356.25 0.57 362.92 0.57 Z" stroke-linecap="round" />
</g>
</g>
</g>
</g>
</g>
</svg>